<?xml version="1.0" encoding="UTF-8" standalone="no"?>
<svg width="169px" height="121px" viewBox="0 0 169 121" version="1.1" xmlns="http://www.w3.org/2000/svg" xmlns:xlink="http://www.w3.org/1999/xlink" xmlns:sketch="http://www.bohemiancoding.com/sketch/ns">
    <!-- Generator: Sketch 3.3.3 (12081) - http://www.bohemiancoding.com/sketch -->
    <title>6th_eye</title>
    <desc>Created with Sketch.</desc>
    <defs>
        <path d="M30.6281236,14.2020573 C31.0561254,14.2340575 29.7091199,18.5160748 29.9131208,18.5160748 C30.3821227,18.5160748 47.6931925,19.9110804 47.6761925,20.3800823 C47.6361923,21.4340865 47.0081898,13.7650556 46.1461863,13.1880532 C46.0171858,13.1020529 30.5891235,15.0220606 30.6281236,14.2020573 C30.0381213,14.1590572 26.3991066,17.8040719 26.1191054,17.9440724 C25.6091034,18.1990735 23.768096,18.5380748 23.3200941,18.073073 C23.2180937,17.9670725 3.45801396,20.0850811 6.91902793,17.2400696 C7.80103149,16.5140667 27.0631093,18.9330764 28.2511141,18.6360752 C30.227122,18.1430732 23.7080957,15.9420644 25.7031038,15.2780617 L30.705124,12.7780516 C30.705124,12.9230522 30.6581238,13.5440547 30.6281236,14.2020573 L30.6281236,14.2020573 L30.6281236,14.2020573 Z M28.0601133,11.8400478 C27.5371112,12.2700495 21.2660859,17.9910726 20.4500826,17.8910722 C16.9600685,17.4630705 18.7510757,15.1590612 15.3960622,15.1590612 C15.1690612,15.1590612 15.5250627,15.0690608 15.9540644,14.9670604 L16.3270659,14.8790601 C16.7560676,14.7770597 17.1120691,14.6860593 16.8840682,14.6860593 C16.4630665,14.6860593 18.2710738,14.2190574 19.4220784,13.2600535 C19.5310788,13.1700532 20.067081,12.1550491 20.2350817,11.648047 C20.0490809,11.642047 19.8720802,11.6170469 19.7060796,11.5620467 C19.6270792,11.5360466 19.6200792,11.4620463 19.6610794,11.3610459 C19.9390805,11.3280457 20.1970815,11.2990456 20.2720818,11.3730459 C20.301082,11.403046 20.2830819,11.5050464 20.2350817,11.648047 C21.2740859,11.6820472 22.5810912,11.1180449 23.6580955,11.8340478 C24.280098,12.2480494 16.7610677,18.073073 17.5590709,18.073073 C17.9670725,18.073073 26.8251083,11.8250477 28.0601133,11.8400478 L28.0601133,11.8400478 L28.0601133,11.8400478 Z M19.6610794,11.3610459 C19.1900775,11.4160461 18.6600753,11.4840464 18.8560761,11.0900448 C19.0150768,10.7720435 33.8701367,16.2480656 33.8701367,16.3270659 C33.8701367,16.3730661 19.8310801,10.9330441 19.6610794,11.3610459 L19.6610794,11.3610459 L19.6610794,11.3610459 Z M43.8261769,11.5260465 L0.979003952,20.2000815 C0.979003952,18.3030739 3.62501463,10.1720411 8.70903516,4.70201898 C12.4410502,0.686002769 21.7510878,-0.390001574 27.8541124,0.672002713 C29.0541173,0.880003553 29.239118,0.968003908 30.2991223,1.49900605 C31.5841275,2.14100864 33.2501342,2.29800928 34.1491379,2.83601145 C34.8031405,3.22801303 41.1441661,6.56702651 41.1441661,6.56702651 C41.1441661,6.56702651 45.8381851,11.4920464 45.326183,11.1900452 C44.9331814,10.9580442 39.0411576,8.4470341 35.2981425,7.07102855 L36.9351491,6.75902729 C35.7371443,6.75902729 34.4081389,6.46802611 33.2881344,6.34302561 C31.9231289,5.85802365 30.9331249,5.53302234 30.7481241,5.53302234 C30.5161232,5.53302234 30.1101216,5.43802195 29.7511201,5.3260215 C29.5551193,5.11802066 29.3511185,4.96702005 29.1441177,4.96702005 C28.8091163,4.96702005 29.232118,5.16402085 29.7511201,5.3260215 C30.0341213,5.62502271 30.3031223,6.04202439 30.5491233,6.28702538 C30.7401241,6.47902616 32.1261297,6.28702538 32.4251309,6.28702538 C32.693132,6.28702538 32.9831332,6.30902547 33.2881344,6.34302561 C33.8971368,6.55902648 43.107174,11.2620455 43.8261769,11.5260465 L43.8261769,11.5260465 L43.8261769,11.5260465 Z" id="path-1"></path>
    </defs>
    <g id="Page-1" stroke="none" stroke-width="1" fill="none" fill-rule="evenodd" sketch:type="MSPage">
        <g id="6th_eye" sketch:type="MSLayerGroup" transform="translate(2.000000, 2.000000)">
            <g id="Page-1">
                <g id="Layer1">
                    <g id="Group" stroke="#000000" stroke-width="3" fill="#FFFFFF" sketch:type="MSShapeGroup">
                        <path d="M80.302,0.199 C79.725,0.135 0.786,116.522 0.786,116.522 L163.294,116.625 C163.294,116.625 80.879,0.263 80.302,0.199 L80.302,0.199 L80.302,0.199 Z" id="Shape"></path>
                    </g>
                    <g id="Group" transform="translate(23.086720, 37.016440)">
                        <path d="M0.26972352,33.1950643 C0.26972352,33.1950643 24.0666941,16.9299187 40.8780979,5.44078656 C50.6971238,-1.27096992 63.6234192,-1.28323008 73.4560675,5.40673056 C90.9935453,17.339953 116.400684,34.629503 116.400684,34.629503 C116.400684,34.629503 93.4660109,49.5896227 76.2132413,60.8444496 C64.8848534,68.2346016 50.2067174,68.0084698 39.1112726,60.273671 C22.3843277,48.6115344 0.26972352,33.1950643 0.26972352,33.1950643 L0.26972352,33.1950643 L0.26972352,33.1950643 Z" id="Shape" stroke="#000000" stroke-width="2.0024928" fill="#FFFFFF" sketch:type="MSShapeGroup"></path>
                        <g id="Oval" transform="translate(35.244016, 0.273810)" stroke="#000000" stroke-width="1.498464" fill="#FFFFFF" sketch:type="MSShapeGroup">
                            <ellipse cx="23.0912144" cy="23.969975" rx="23.016407" ry="23.016407"></ellipse>
                        </g>
                        <g id="Oval" transform="translate(47.121935, 14.620132)" stroke="#000000" stroke-width="0.9944352" fill="#000000" sketch:type="MSShapeGroup">
                            <ellipse cx="11.2124816" cy="10.8992822" rx="10.8611395" ry="10.6867728"></ellipse>
                        </g>
                        <g transform="translate(33.916300, 2.985627)">
                            <path d="M30.6281236,14.2020573 C31.0561254,14.2340575 29.7091199,18.5160748 29.9131208,18.5160748 C30.3821227,18.5160748 47.6931925,19.9110804 47.6761925,20.3800823 C47.6361923,21.4340865 47.0081898,13.7650556 46.1461863,13.1880532 C46.0171858,13.1020529 30.5891235,15.0220606 30.6281236,14.2020573 C30.0381213,14.1590572 26.3991066,17.8040719 26.1191054,17.9440724 C25.6091034,18.1990735 23.768096,18.5380748 23.3200941,18.073073 C23.2180937,17.9670725 3.45801396,20.0850811 6.91902793,17.2400696 C7.80103149,16.5140667 27.0631093,18.9330764 28.2511141,18.6360752 C30.227122,18.1430732 23.7080957,15.9420644 25.7031038,15.2780617 L30.705124,12.7780516 C30.705124,12.9230522 30.6581238,13.5440547 30.6281236,14.2020573 L30.6281236,14.2020573 L30.6281236,14.2020573 Z M28.0601133,11.8400478 C27.5371112,12.2700495 21.2660859,17.9910726 20.4500826,17.8910722 C16.9600685,17.4630705 18.7510757,15.1590612 15.3960622,15.1590612 C15.1690612,15.1590612 15.5250627,15.0690608 15.9540644,14.9670604 L16.3270659,14.8790601 C16.7560676,14.7770597 17.1120691,14.6860593 16.8840682,14.6860593 C16.4630665,14.6860593 18.2710738,14.2190574 19.4220784,13.2600535 C19.5310788,13.1700532 20.067081,12.1550491 20.2350817,11.648047 C20.0490809,11.642047 19.8720802,11.6170469 19.7060796,11.5620467 C19.6270792,11.5360466 19.6200792,11.4620463 19.6610794,11.3610459 C19.9390805,11.3280457 20.1970815,11.2990456 20.2720818,11.3730459 C20.301082,11.403046 20.2830819,11.5050464 20.2350817,11.648047 C21.2740859,11.6820472 22.5810912,11.1180449 23.6580955,11.8340478 C24.280098,12.2480494 16.7610677,18.073073 17.5590709,18.073073 C17.9670725,18.073073 26.8251083,11.8250477 28.0601133,11.8400478 L28.0601133,11.8400478 L28.0601133,11.8400478 Z M19.6610794,11.3610459 C19.1900775,11.4160461 18.6600753,11.4840464 18.8560761,11.0900448 C19.0150768,10.7720435 33.8701367,16.2480656 33.8701367,16.3270659 C33.8701367,16.3730661 19.8310801,10.9330441 19.6610794,11.3610459 L19.6610794,11.3610459 L19.6610794,11.3610459 Z M43.8261769,11.5260465 L0.979003952,20.2000815 C0.979003952,18.3030739 3.62501463,10.1720411 8.70903516,4.70201898 C12.4410502,0.686002769 21.7510878,-0.390001574 27.8541124,0.672002713 C29.0541173,0.880003553 29.239118,0.968003908 30.2991223,1.49900605 C31.5841275,2.14100864 33.2501342,2.29800928 34.1491379,2.83601145 C34.8031405,3.22801303 41.1441661,6.56702651 41.1441661,6.56702651 C41.1441661,6.56702651 45.8381851,11.4920464 45.326183,11.1900452 C44.9331814,10.9580442 39.0411576,8.4470341 35.2981425,7.07102855 L36.9351491,6.75902729 C35.7371443,6.75902729 34.4081389,6.46802611 33.2881344,6.34302561 C31.9231289,5.85802365 30.9331249,5.53302234 30.7481241,5.53302234 C30.5161232,5.53302234 30.1101216,5.43802195 29.7511201,5.3260215 C29.5551193,5.11802066 29.3511185,4.96702005 29.1441177,4.96702005 C28.8091163,4.96702005 29.232118,5.16402085 29.7511201,5.3260215 C30.0341213,5.62502271 30.3031223,6.04202439 30.5491233,6.28702538 C30.7401241,6.47902616 32.1261297,6.28702538 32.4251309,6.28702538 C32.693132,6.28702538 32.9831332,6.30902547 33.2881344,6.34302561 C33.8971368,6.55902648 43.107174,11.2620455 43.8261769,11.5260465 L43.8261769,11.5260465 L43.8261769,11.5260465 Z" id="Shape" stroke="#FFFFFF" stroke-width="3.00001211" sketch:type="MSShapeGroup"></path>
                            <g id="Shape-Clipped" transform="translate(0.000000, 0.000000)">
                                <mask id="mask-2" sketch:name="path-1" fill="white">
                                    <use xlink:href="#path-1"></use>
                                </mask>
                                <g id="path-1"></g>
                                <path d="M30.6281236,14.2020573 C31.0561254,14.2340575 29.7091199,18.5160748 29.9131208,18.5160748 C30.3821227,18.5160748 47.6931925,19.9110804 47.6761925,20.3800823 C47.6361923,21.4340865 47.0081898,13.7650556 46.1461863,13.1880532 C46.0171858,13.1020529 30.5891235,15.0220606 30.6281236,14.2020573 C30.0381213,14.1590572 26.3991066,17.8040719 26.1191054,17.9440724 C25.6091034,18.1990735 23.768096,18.5380748 23.3200941,18.073073 C23.2180937,17.9670725 3.45801396,20.0850811 6.91902793,17.2400696 C7.80103149,16.5140667 27.0631093,18.9330764 28.2511141,18.6360752 C30.227122,18.1430732 23.7080957,15.9420644 25.7031038,15.2780617 L30.705124,12.7780516 C30.705124,12.9230522 30.6581238,13.5440547 30.6281236,14.2020573 L30.6281236,14.2020573 L30.6281236,14.2020573 Z M28.0601133,11.8400478 C27.5371112,12.2700495 21.2660859,17.9910726 20.4500826,17.8910722 C16.9600685,17.4630705 18.7510757,15.1590612 15.3960622,15.1590612 C15.1690612,15.1590612 15.5250627,15.0690608 15.9540644,14.9670604 L16.3270659,14.8790601 C16.7560676,14.7770597 17.1120691,14.6860593 16.8840682,14.6860593 C16.4630665,14.6860593 18.2710738,14.2190574 19.4220784,13.2600535 C19.5310788,13.1700532 20.067081,12.1550491 20.2350817,11.648047 C20.0490809,11.642047 19.8720802,11.6170469 19.7060796,11.5620467 C19.6270792,11.5360466 19.6200792,11.4620463 19.6610794,11.3610459 C19.9390805,11.3280457 20.1970815,11.2990456 20.2720818,11.3730459 C20.301082,11.403046 20.2830819,11.5050464 20.2350817,11.648047 C21.2740859,11.6820472 22.5810912,11.1180449 23.6580955,11.8340478 C24.280098,12.2480494 16.7610677,18.073073 17.5590709,18.073073 C17.9670725,18.073073 26.8251083,11.8250477 28.0601133,11.8400478 L28.0601133,11.8400478 L28.0601133,11.8400478 Z M19.6610794,11.3610459 C19.1900775,11.4160461 18.6600753,11.4840464 18.8560761,11.0900448 C19.0150768,10.7720435 33.8701367,16.2480656 33.8701367,16.3270659 C33.8701367,16.3730661 19.8310801,10.9330441 19.6610794,11.3610459 L19.6610794,11.3610459 L19.6610794,11.3610459 Z M43.8261769,11.5260465 L0.979003952,20.2000815 C0.979003952,18.3030739 3.62501463,10.1720411 8.70903516,4.70201898 C12.4410502,0.686002769 21.7510878,-0.390001574 27.8541124,0.672002713 C29.0541173,0.880003553 29.239118,0.968003908 30.2991223,1.49900605 C31.5841275,2.14100864 33.2501342,2.29800928 34.1491379,2.83601145 C34.8031405,3.22801303 41.1441661,6.56702651 41.1441661,6.56702651 C41.1441661,6.56702651 45.8381851,11.4920464 45.326183,11.1900452 C44.9331814,10.9580442 39.0411576,8.4470341 35.2981425,7.07102855 L36.9351491,6.75902729 C35.7371443,6.75902729 34.4081389,6.46802611 33.2881344,6.34302561 C31.9231289,5.85802365 30.9331249,5.53302234 30.7481241,5.53302234 C30.5161232,5.53302234 30.1101216,5.43802195 29.7511201,5.3260215 C29.5551193,5.11802066 29.3511185,4.96702005 29.1441177,4.96702005 C28.8091163,4.96702005 29.232118,5.16402085 29.7511201,5.3260215 C30.0341213,5.62502271 30.3031223,6.04202439 30.5491233,6.28702538 C30.7401241,6.47902616 32.1261297,6.28702538 32.4251309,6.28702538 C32.693132,6.28702538 32.9831332,6.30902547 33.2881344,6.34302561 C33.8971368,6.55902648 43.107174,11.2620455 43.8261769,11.5260465 L43.8261769,11.5260465 L43.8261769,11.5260465 Z" id="path-1" fill="#FFFFFF" sketch:type="MSShapeGroup" mask="url(#mask-2)"></path>
                                <path d="M4.24801715,21.8500882 L4.06101639,21.8490882 L3.87001562,21.8390882 L3.69301491,21.8230881 L3.53001425,21.802088 L3.38001365,21.7780879 L3.24101308,21.7520878 L3.11301257,21.7250877 L2.99401209,21.6970876 L2.88501165,21.6700875 L2.77701121,21.6410874 L2.60901053,21.5940872 L2.46300994,21.551087 L2.44100985,21.545087 L2.39900969,21.548087 L2.28100921,21.554087 L2.15300869,21.558087 L2.00200808,21.558087 L1.83900742,21.553087 L1.71300692,21.545087 L1.58200639,21.5320869 L1.42300574,21.5090868 L1.23100497,21.4710867 L1.11700451,21.4410866 L0.983003968,21.4020864 L0.85200344,21.3570862 L0.838003383,21.3520862 L0.662002673,21.2800859 L0.490001978,21.1980856 L0.479001934,21.1920856 L0.31700128,21.1010852 L0.16100065,21.0010848 L0.0120000484,20.8910843 L0.00300001211,20.8840843 L-0.136000549,20.7680838 L-0.267001078,20.6440833 L-0.391001579,20.5120828 L-0.396001599,20.5070828 L-0.511002063,20.3690822 L-0.617002491,20.2250817 L-0.621002507,20.2190816 L-0.725002927,20.059081 L-0.818003302,19.8920803 L-0.822003319,19.8850803 L-0.903003646,19.7150796 L-0.974003932,19.5400789 L-0.97600394,19.5330789 L-1.02800415,19.3790782 L-1.07100432,19.2230776 L-1.07300433,19.2160776 L-1.11200449,19.0390769 L-1.1390046,18.8590761 L-1.1400046,18.8510761 L-1.15900468,18.6430753 L-1.16200469,18.4340744 L-1.16200469,18.4180744 L-1.15500466,18.2550737 L-1.1390046,18.092073 L-1.1140045,17.9300724 L-1.11100449,17.9120723 L-1.07000432,17.7230715 L-1.01700411,17.5370708 L-1.01100408,17.5190707 L-0.965003896,17.3860702 L-0.912003682,17.2540697 L-0.858003464,17.1280691 L-0.749003024,16.9190683 L-0.64900262,16.7540676 L-0.557002249,16.6180671 L-0.472001906,16.5030666 L-0.385001554,16.3950662 L-0.358001445,16.3630661 L-0.333001344,16.3010658 L-0.278001122,16.1770653 L-0.214000864,16.0430648 L-0.0770003109,15.8080638 L0.0690002786,15.600063 L0.216000872,15.4190622 L0.362001461,15.2640616 L0.513002071,15.120061 L0.658002656,14.9950605 L0.710002866,14.9540604 L0.719002903,14.86806 L0.749003024,14.6900593 L0.751003032,14.6760592 L0.802003238,14.4650584 L0.8670035,14.2570576 L0.87200352,14.2420575 L0.934003771,14.0830569 L1.00500406,13.9270562 L1.06700431,13.8000557 L1.19200481,13.5910549 L1.30600527,13.4250542 L1.4110057,13.2900537 L1.50600608,13.1770532 L1.59100642,13.0840528 L1.66900674,13.0040525 L1.75200707,12.9220522 L1.87100755,12.8130517 L1.99200804,12.7080513 L2.10300849,12.6170509 L2.20800891,12.5340506 L2.31000933,12.4560503 L2.40800972,12.38305 L2.50701012,12.3110497 L2.68101082,12.1870492 L2.84601149,12.0710487 L2.85701153,12.0640487 L2.86101155,12.0580487 L2.94101187,11.9300482 L3.0210122,11.8050477 L3.10401253,11.6810472 L3.18701287,11.5580467 L3.27301321,11.4360462 L3.35901356,11.3160457 L3.44601391,11.1970452 L3.53401427,11.0790447 L3.62401463,10.9620443 L3.71401499,10.8450438 L3.80601537,10.7290433 L3.89801574,10.6150429 L3.99001611,10.5020424 L4.08401649,10.3890419 L4.17801687,10.2770415 L4.27301725,10.166041 L4.36901764,10.0570406 L4.46501803,9.94804016 L4.56201842,9.84003973 L4.6580188,9.73303929 L4.7550192,9.62703887 L4.85201959,9.52303845 L4.95001998,9.42003803 L5.04702038,9.31803762 L5.14502077,9.21703721 L5.24202116,9.11803681 L5.33002152,9.03003646 L5.37302169,8.98703628 L5.40602182,8.95203614 L5.44002196,8.917036 L5.4730221,8.88003585 L5.50702223,8.8420357 L5.54102237,8.80403554 L5.57502251,8.76403538 L5.60902264,8.72403522 L5.64302278,8.68403506 L5.67802292,8.64003488 L5.71302306,8.5960347 L5.74302319,8.55703455 L5.81702348,8.46103416 L5.88702377,8.36503377 L5.95802405,8.26503337 L6.02902434,8.16103295 L6.10102463,8.05403251 L6.17402493,7.94203206 L6.24702522,7.8270316 L6.32002551,7.70803112 L6.39402581,7.58503062 L6.46902612,7.46003012 L6.54402642,7.3310296 L6.62002673,7.19902906 L6.69802704,7.06302851 L6.77502735,6.92602796 L6.935028,6.6380268 L7.09902866,6.3420256 L7.26802934,6.03602437 L7.44203004,5.72502311 L7.53403042,5.56302246 L7.62703079,5.4010218 L7.72303118,5.23702114 L7.82103157,5.07102047 L7.92203198,4.9050198 L8.0260324,4.73701912 L8.13303283,4.56801844 L8.24303328,4.39701775 L8.35803374,4.22601706 L8.47603422,4.05401637 L8.59903472,3.88201567 L8.72603523,3.70901497 L8.85303574,3.5420143 L8.92503603,3.45001393 L8.99403631,3.36401358 L9.06403659,3.27801323 L9.13603688,3.19201289 L9.21003718,3.10601254 L9.28403748,3.02001219 L9.36003779,2.93401184 L9.4380381,2.8480115 L9.51703842,2.76401116 L9.59703874,2.68001082 L9.67903908,2.59601048 L9.76303941,2.51201014 L9.84903976,2.4280098 L9.93604011,2.34600947 L10.0250405,2.26400914 L10.1150408,2.18300881 L10.2070412,2.10300849 L10.3010416,2.02200816 L10.397042,1.94300784 L10.4940424,1.86500753 L10.5930428,1.78800722 L10.6950432,1.71200691 L10.7970436,1.63700661 L10.902044,1.56300631 L11.0080444,1.49000602 L11.1160449,1.41900573 L11.2260453,1.34900545 L11.3370458,1.28000517 L11.4500462,1.2130049 L11.5650467,1.14700463 L11.6810472,1.08300437 L11.8000476,1.02000412 L11.9190481,0.960003876 L12.0410486,0.900003633 L12.1630491,0.843003403 L12.2880496,0.787003177 L12.4140501,0.734002963 L12.5410506,0.682002753 L12.6700512,0.632002551 L12.7990517,0.584002358 L12.9310522,0.538002172 L13.0640527,0.494001994 L13.1980533,0.453001829 L13.3330538,0.413001667 L13.4690544,0.375001514 L13.6090549,0.339001369 L13.7260554,0.311001256 L13.8430559,0.285001151 L13.9600564,0.262001058 L14.0780568,0.241000973 L14.1930573,0.2230009 L14.3060578,0.207000836 L14.4190582,0.193000779 L14.5310587,0.182000735 L14.6430591,0.172000694 L14.7520596,0.164000662 L14.85906,0.158000638 L14.9650604,0.154000622 L15.0720608,0.15100061 L15.1750613,0.150000606 L15.2780617,0.150000606 L15.3800621,0.152000614 L15.4800625,0.154000622 L15.5870629,0.159000642 L15.7710637,0.169000682 L15.9580644,0.184000743 L16.1410652,0.202000815 L16.3190659,0.2230009 L16.4910666,0.246000993 L16.6580673,0.271001094 L16.8210679,0.297001199 L16.9780685,0.325001312 L17.1310692,0.353001425 L17.2780698,0.381001538 L17.4230703,0.410001655 L17.6890714,0.465001877 L17.9390724,0.517002087 L18.1710734,0.565002281 L18.2740738,0.586002366 L18.3740742,0.605002442 L18.4670746,0.623002515 L18.5530749,0.638002576 L18.6320752,0.651002628 L18.6990755,0.661002669 L18.7490757,0.668002697 L18.8010759,0.674002721 L18.8600761,0.679002741 L18.9250764,0.684002761 L18.9960767,0.688002778 L19.073077,0.69100279 L19.1550773,0.693002798 L19.2430777,0.695002806 L19.3360781,0.695002806 L19.4330785,0.695002806 L19.5350789,0.694002802 L19.6380793,0.692002794 L19.8680802,0.685002765 L20.1070812,0.676002729 L20.6290833,0.653002636 L20.9070844,0.641002588 L21.1970856,0.631002547 L21.4920868,0.622002511 L21.6500874,0.619002499 L21.806088,0.617002491 L21.9650887,0.616002487 L22.1260893,0.616002487 L22.29009,0.619002499 L22.4570907,0.622002511 L22.6260913,0.628002535 L22.797092,0.636002568 L22.9700927,0.647002612 L23.1460934,0.660002664 L23.3240942,0.676002729 L23.5050949,0.69600281 L23.6880956,0.719002903 L23.8730964,0.746003012 L24.0610971,0.777003137 L24.2510979,0.813003282 L24.4350986,0.85200344 L24.5410991,0.877003541 L24.6380995,0.900003633 L24.7360999,0.926003738 L24.8341003,0.953003847 L24.9331007,0.98100396 L25.0331011,1.01100408 L25.1331015,1.04300421 L25.2331019,1.07600434 L25.3341023,1.11200449 L25.4341027,1.14900464 L25.5351031,1.1880048 L25.6371035,1.22900496 L25.7381039,1.27200514 L25.8401043,1.31700532 L25.9411047,1.36400551 L26.0421051,1.4130057 L26.1451056,1.46500591 L26.246106,1.51900613 L26.3481064,1.57400635 L26.3641064,1.58400639 L26.4281067,1.45500587 L26.5481072,1.25400506 L26.6231075,1.14800463 L26.7121078,1.02800415 L26.8071082,0.913003686 L26.8221083,0.896003617 L26.9511088,0.757003056 L27.0881094,0.626002527 L27.1051094,0.611002467 L27.2291099,0.506002043 L27.3601105,0.407001643 L27.3791105,0.393001587 L27.500111,0.311001256 L27.6241115,0.236000953 L27.752112,0.16100065 L27.982113,0.053000214 L28.1921138,-0.0290001171 L28.3841146,-0.0910003674 L28.5581153,-0.137000553 L28.7161159,-0.17100069 L28.8631165,-0.197000795 L29.0001171,-0.216000872 L29.1281176,-0.229000925 L29.2481181,-0.239000965 L29.3611185,-0.244000985 L29.470119,-0.248001001 L29.5761194,-0.248001001 L29.6761198,-0.247000997 L29.7851202,-0.244000985 L29.961121,-0.235000949 L30.1401217,-0.220000888 L30.3141224,-0.201000811 L30.4831231,-0.178000719 L30.6481237,-0.153000618 L30.8111244,-0.124000501 L30.971125,-0.0920003714 L31.1291257,-0.0580002342 L31.2861263,-0.0200000807 L31.4441269,0.0220000888 L31.6031276,0.0680002745 L31.7661282,0.120000484 L31.9351289,0.180000727 L32.1011296,0.245000989 L32.2151301,0.294001187 L32.3191305,0.343001385 L32.4321309,0.400001615 L32.5571314,0.468001889 L32.701132,0.555002241 L32.8631327,0.664002681 L33.0521334,0.811003274 L33.2331342,0.97600394 L33.3631347,1.11100449 L33.4831352,1.24800504 L33.6361358,1.44900585 L33.7771364,1.66900674 L33.8911368,1.87500757 L33.9831372,2.07100836 L34.0541375,2.25000908 L34.1111377,2.41300974 L34.1561379,2.56401035 L34.190138,2.69501088 L34.2011381,2.74301107 L34.2271382,2.76501116 L34.3131385,2.84101147 L34.4001389,2.91901178 L34.4861392,2.99901211 L34.5721396,3.08101244 L34.6571399,3.16501278 L34.7801404,3.29001328 L34.8991409,3.41401378 L35.0141414,3.53801428 L35.1261418,3.66201478 L35.2361423,3.78501528 L35.3421427,3.90701577 L35.4451431,4.02801626 L35.5451435,4.14801675 L35.6441439,4.26701723 L35.7411443,4.38801771 L35.922145,4.61401863 L36.0981457,4.83801953 L36.2661464,5.0530204 L36.4261471,5.26002124 L36.5791477,5.45602203 L36.7291483,5.64602279 L36.7981486,5.73102314 L36.8671488,5.81702348 L36.9351491,5.89902381 L37.0001494,5.97702413 L37.0641496,6.05302444 L37.1261499,6.12502473 L37.1861501,6.192025 L37.2341503,6.24402521 L37.2831505,6.26202528 L37.3451508,6.28302537 L37.4171511,6.30702546 L37.5001514,6.33302557 L37.5931518,6.36102568 L37.6971522,6.3910258 L37.9301531,6.45902608 L38.0621537,6.49802623 L38.2011542,6.54102641 L38.3501548,6.5880266 L38.5071555,6.64102681 L38.6731561,6.69902704 L38.8381568,6.76102729 L38.9371572,6.80102746 L39.0281576,6.83902761 L39.1231579,6.88002778 L39.2201583,6.92402795 L39.3191587,6.97002814 L39.4181591,7.01902834 L39.5201595,7.07202855 L39.62416,7.12902878 L39.7301604,7.18902902 L39.8371608,7.25402929 L39.9441613,7.32202956 L40.0531617,7.39502985 L40.1631621,7.47303017 L40.2721626,7.5560305 L40.382163,7.64303086 L40.4691634,7.71703115 L40.5261636,7.76603135 L40.5601637,7.79503147 L40.6521641,7.87103178 L40.7511645,7.9500321 L40.861165,8.03603244 L40.9801654,8.12803281 L41.108166,8.22603321 L41.3841671,8.43603406 L41.5311677,8.54903451 L41.6831683,8.66803499 L41.8401689,8.79203549 L42.0011696,8.92203602 L42.1591702,9.05403655 L42.2471706,9.13103686 L42.3311709,9.20503716 L42.4161712,9.28103747 L42.5021716,9.36103779 L42.5891719,9.44403813 L42.6821723,9.5360385 L42.7871727,9.64303893 L42.8921732,9.75703939 L42.9891736,9.86903984 L43.0791739,9.97804028 L43.1621743,10.0830407 L43.2381746,10.1840411 L43.3071748,10.2780415 L43.3741751,10.3730419 L43.4721755,10.5180425 L43.5431758,10.6260429 L43.6291761,10.6760431 L43.7461766,10.7490434 L43.8621771,10.8260437 L43.9751775,10.907044 L44.083178,10.9880444 L44.1871784,11.0730447 L44.2891788,11.1600451 L44.3861792,11.2480454 L44.4791796,11.3380458 L44.5681799,11.4290461 L44.6531803,11.5200465 L44.7351806,11.6130469 L44.8121809,11.7050473 L44.8851812,11.7960476 L44.9541815,11.888048 L45.0211818,11.9810484 L45.083182,12.0710487 L45.1411822,12.1600491 L45.1981825,12.2490495 L45.2501827,12.3370498 L45.2991829,12.4220501 L45.3521831,12.5180505 L45.4321834,12.6730512 L45.5081837,12.8310518 L45.576184,12.9820524 L45.6371842,13.127053 L45.6921845,13.2640535 L45.7401847,13.3940541 L45.7841848,13.5150546 L45.825185,13.632055 L45.8901853,13.8270558 L45.9451855,13.9930565 L45.9871857,14.114057 L46.0371859,14.1500571 L46.1921865,14.2760576 L46.2781868,14.356058 L46.3811872,14.4560584 L46.4791876,14.5610588 L46.4871877,14.5700588 L46.6061882,14.7130594 L46.7161886,14.86206 L46.7221886,14.87206 L46.813189,15.0120606 L46.8961893,15.1570612 L46.9701896,15.3060618 L46.9741896,15.3150618 L47.0451899,15.4790625 L47.1051902,15.6460632 L47.1561904,15.8170639 L47.1961905,15.9910646 L47.1981905,15.9990646 L47.2311907,16.2030654 L47.2511908,16.4080662 L47.2561908,16.6130671 L47.2481907,16.8190679 L47.2471907,16.8280679 L47.2271907,17.0160687 L47.1941905,17.2030695 L47.1501904,17.3880702 L47.0941901,17.5690709 L47.0271899,17.7470716 L47.0241898,17.7550717 L46.9371895,17.9450724 L46.8381891,18.1280732 L46.7261886,18.3040739 L46.6031881,18.4710746 L46.5961881,18.4800746 L46.4811876,18.6160752 L46.3591872,18.7450757 L46.2291866,18.8660762 L46.2131866,18.8800762 L46.078186,18.9920767 L45.9371855,19.0960771 L45.9181854,19.1090771 L45.7921849,19.1920775 L45.6611843,19.2680778 L45.6411843,19.2790778 L45.5231838,19.3410781 L45.4031833,19.3970783 L45.2761828,19.4530785 L45.0521819,19.5330789 L44.8491811,19.5900791 L44.6671803,19.6300792 L44.5021797,19.6580794 L44.3521791,19.6780794 L44.2131785,19.6900795 L44.084178,19.6980795 L43.9651775,19.7010795 L43.853177,19.7020795 L43.7481766,19.6990795 L43.6471762,19.6960795 L43.5391758,19.6890795 L43.3711751,19.6750794 L43.2001744,19.6560794 L43.0371737,19.6340793 L42.8811731,19.6100792 L42.7301725,19.5840791 L42.5841719,19.557079 L42.4411713,19.5290788 L42.3031708,19.4990787 L42.1681702,19.4700786 L42.0331697,19.4390785 L41.7901687,19.3800782 L41.5611678,19.323078 L41.356167,19.2700778 L41.1841663,19.2250776 L41.0541657,19.1920775 L40.9871655,19.1760774 L40.877165,19.1550773 L40.7201644,19.1240772 L40.5671638,19.0910771 L40.4181632,19.0580769 L40.2721626,19.0240768 L40.131162,18.9900767 L39.9921615,18.9560765 L39.8571609,18.9210764 L39.7271604,18.8860762 L39.5961599,18.8500761 L39.3561589,18.7830758 L39.126158,18.7160756 L38.9091571,18.6520753 L38.7041563,18.5930751 L38.5111555,18.5370748 L38.3251547,18.4850746 L38.2411544,18.4620745 L38.155154,18.4400744 L38.0711537,18.4180744 L37.9891534,18.3980743 L37.908153,18.3790742 L37.8291527,18.3620741 L37.7501524,18.3450741 L37.6721521,18.329074 L37.5941518,18.3150739 L37.5141514,18.3010739 L37.4521512,18.2910738 L37.3901509,18.2820738 L37.2341503,18.2600737 L37.0681496,18.2390736 L36.8861489,18.2170735 L36.6881481,18.1940735 L36.4751473,18.1680733 L36.2531464,18.1390732 L36.1301459,18.1220732 L36.0061454,18.1040731 L35.8791448,18.084073 L35.7501443,18.0620729 L35.6161438,18.0380728 L35.4791432,18.0120727 L35.3391427,17.9820726 L35.1951421,17.9500725 L35.0481415,17.9140723 L34.8991409,17.8750722 L34.7461403,17.832072 L34.5911396,17.7840718 L34.432139,17.7320716 L34.2721384,17.6740714 L34.1101377,17.6120711 L33.946137,17.5440708 L33.7791364,17.4700705 L33.5531355,17.3610701 L33.444135,17.2980698 L33.3091345,17.2150695 L33.1781339,17.1260691 L33.0571335,17.0380688 L32.8601327,16.8670681 L32.701132,16.7060674 L32.5721315,16.5600669 L32.4791311,16.4420664 L32.3651307,16.3860662 L32.2231301,16.3090658 L32.0671295,16.2160655 L31.8961288,16.100065 L31.706128,15.9540644 L31.5981276,15.857064 L31.5011272,15.7650636 L31.4071268,15.6690633 L31.3121264,15.5670628 L31.1801259,15.4020622 L31.0701254,15.2470616 L30.966125,15.0810609 L30.9161248,14.9880605 L30.8401245,14.8380599 L30.7721242,14.6830593 L30.7681242,14.6730592 L30.7001239,14.4870585 L30.6441237,14.2970577 L30.6011235,14.1030569 L30.6001235,14.0940569 L30.5721234,13.9180562 L30.5551234,13.7420555 L30.5481233,13.5650548 L30.5521233,13.388054 L30.5521233,13.378054 L30.5561234,13.3310538 L30.5211232,13.3100537 L30.4161228,13.2490535 L30.3091224,13.1880532 L30.2001219,13.127053 L30.0871215,13.0660527 L29.972121,13.0050525 L29.8551205,12.9430523 L29.73512,12.881052 L29.6131196,12.8200518 L29.4901191,12.7580515 L29.3661186,12.6970513 L29.1041175,12.5700507 L28.8391164,12.4440502 L28.5681153,12.3180497 L28.2901142,12.1890492 L28.2181139,12.1550491 L28.1161135,12.1520491 L27.9161127,12.142049 L27.7111119,12.127049 L27.5091111,12.1100489 L27.3091102,12.0880488 L27.1111095,12.0640487 L26.9161087,12.0370486 L26.7241079,12.0070485 L26.5331071,11.9750483 L26.3461064,11.9410482 L26.1611056,11.9050481 L25.9771049,11.8660479 L25.7971041,11.8270477 L25.6191034,11.7850476 L25.4421027,11.7430474 L25.268102,11.6990472 L25.0971013,11.654047 L24.9271006,11.6090469 L24.7601,11.5630467 L24.5910993,11.5150465 L24.270098,11.4220461 L23.9520967,11.3280457 L23.6430954,11.2340454 L23.043093,11.0510446 L22.7540919,10.9640443 L22.4680907,10.8800439 L22.3320902,10.8410438 L22.1950896,10.8020436 L22.0600891,10.7650435 L21.9260885,10.7290433 L21.8520882,10.7100432 L21.8860884,10.8300437 L21.9290885,11.0470446 L21.9560886,11.2670455 L21.9670887,11.4880464 L21.9610887,11.7100473 L21.9390886,11.9310482 L21.9010884,12.149049 L21.8470882,12.3640499 L21.7770879,12.5740508 L21.6920876,12.7790516 L21.5920872,12.9760524 L21.4780867,13.1660532 L21.3490862,13.3470539 L21.2080856,13.5180546 L21.055085,13.6780552 L20.8900843,13.8260558 L20.7150836,13.9620564 L20.5300829,14.0840569 L20.3370821,14.1930573 L20.1360813,14.2870577 L19.9290805,14.365058 L19.7170796,14.4290583 L19.5000787,14.4760584 L19.2810778,14.5070586 L19.0600769,14.5220586 L19.0000767,14.5240586 L18.7440757,14.5270586 L18.577075,14.5270586 L18.4020743,14.5270586 L18.2260736,14.5260586 L18.0560729,14.5220586 L17.9970727,14.5200586 L18.0190727,14.5380587 L18.1780734,14.6960593 L18.324074,14.86506 L18.4570745,15.0440607 L18.577075,15.2330615 L18.6820754,15.4310623 L18.7720758,15.6350631 L18.8470761,15.846064 L18.9060763,16.0620648 L18.9480765,16.2810657 L18.9740766,16.5040666 L18.9840766,16.7270675 L18.9770766,16.9500684 L18.9530765,17.1730693 L18.9120764,17.3930702 L18.8560761,17.6090711 L18.7830758,17.8210719 L18.6950755,18.0260728 L18.5920751,18.2250736 L18.4740746,18.4150743 L18.3430741,18.5960751 L18.1980735,18.7660758 L18.0410728,18.9260764 L17.8730722,19.073077 L17.6940714,19.2070775 L17.5060707,19.327078 L17.3090699,19.4340785 L17.1050691,19.5250788 L16.8940682,19.6010791 L16.6790673,19.6610794 L16.4600665,19.7040795 L16.2380656,19.7310797 L16.0140647,19.7420797 L15.9610644,19.7430797 L15.9410644,19.7430797 L15.9250643,19.7440797 L15.9120642,19.7450797 L15.9020642,19.7460797 L15.8940642,19.7470797 L15.8870641,19.7510797 L15.8780641,19.7560798 L15.8660641,19.7620798 L15.852064,19.7700798 L15.841064,19.7760798 L15.7900637,19.80708 L15.7360635,19.8410801 L15.6710633,19.8830803 L15.4930625,20.0020808 L15.3890621,20.072081 L15.2680616,20.1520814 L15.1330611,20.2390817 L14.9840605,20.3310821 L14.8280599,20.4230825 L14.7330595,20.4770827 L14.6430591,20.5270829 L14.5480587,20.5780831 L14.4490583,20.6280833 L14.3480579,20.6780835 L14.2430575,20.7280837 L14.1340571,20.7770839 L14.0220566,20.8250841 L13.9080561,20.8710843 L13.7900557,20.9170844 L13.6690552,20.9610846 L13.5460547,21.0030848 L13.4200542,21.043085 L13.2910537,21.0810851 L13.1600531,21.1180853 L13.0260526,21.1510854 L12.891052,21.1830855 L12.7560515,21.2110856 L12.6580511,21.2300857 L12.5530507,21.2480858 L12.37705,21.2750859 L12.1950492,21.297086 L12.0170485,21.314086 L11.8430478,21.3260861 L11.6740471,21.3340861 L11.5110465,21.3370861 L11.3510458,21.3380861 L11.1970452,21.3350861 L11.0480446,21.3300861 L10.903044,21.3220861 L10.7630435,21.313086 L10.6280429,21.303086 L10.4980424,21.292086 L10.3730419,21.2790859 L10.2490414,21.2660859 L10.0270405,21.2410858 L9.81803964,21.2170857 L9.62803887,21.1940856 L9.45203816,21.1740855 L9.37803786,21.1670855 L9.30503757,21.1600854 L9.23803729,21.1540854 L9.17603704,21.1500854 L9.12003682,21.1460854 L9.06903661,21.1440854 L9.02403643,21.1430854 L8.91303598,21.1420854 L8.77803544,21.1370853 L8.64103488,21.1270853 L8.52503442,21.1160852 L8.51703438,21.1200853 L8.39103388,21.1690855 L8.26803338,21.2120856 L8.1500329,21.2510858 L8.03503244,21.2850859 L7.92203198,21.3160861 L7.81203154,21.3440862 L7.7040311,21.3680863 L7.59803067,21.3910864 L7.49403025,21.4110864 L7.39402985,21.4280865 L7.29302944,21.4440866 L7.19302904,21.4580866 L7.09702865,21.4710867 L7.00102826,21.4820867 L6.89602784,21.4920868 L6.72002713,21.5060868 L6.53802639,21.5170869 L6.35902567,21.5220869 L6.192025,21.5240869 L5.98202415,21.5230869 L5.7720233,21.5200869 L5.75002321,21.5190869 L5.72002309,21.5340869 L5.57202249,21.5950872 L5.4250219,21.6490874 L5.28002132,21.6950876 L5.13702074,21.7340877 L4.99902018,21.7660879 L4.86601964,21.792088 L4.73701912,21.8120881 L4.61301862,21.8280881 L4.49401814,21.8380882 L4.37901768,21.8460882 L4.24801715,21.8500882 L4.24801715,21.8500882 Z M9.58303869,20.4900827 L9.58903871,20.4860827 L9.60703878,20.4690826 L9.58303869,20.4900827 L9.58303869,20.4900827 Z" id="Shape" fill="#FFFFFF" sketch:type="MSShapeGroup" mask="url(#mask-2)"></path>
                            </g>
                        </g>
                        <g id="Shape" transform="translate(57.761179, 29.151369) rotate(178.371435) translate(-57.761179, -29.151369) translate(0.261179, 22.151369)" stroke-width="2.01084398" stroke="#000000" sketch:type="MSShapeGroup">
                            <path d="M0.03802681,0.10994679 C0.03802681,0.10994679 38.5213041,12.8238477 56.7903035,13.3475667 C75.0524916,13.8712856 114.492061,4.57402734 114.492061,4.57402734"></path>
                        </g>
                    </g>
                </g>
            </g>
        </g>
    </g>
</svg>